<?xml version="1.0" standalone="no"?>
<!DOCTYPE svg PUBLIC "-//W3C//DTD SVG 20010904//EN"
 "http://www.w3.org/TR/2001/REC-SVG-20010904/DTD/svg10.dtd">
<svg version="1.0" xmlns="http://www.w3.org/2000/svg"
 width="256.000000pt" height="256.000000pt" viewBox="0 0 256.000000 256.000000"
 preserveAspectRatio="xMidYMid meet">

<g transform="translate(0.000000,256.000000) scale(0.100000,-0.100000)"
fill="#fff" stroke="none">
<path d="M1242 1993 c-41 -20 -62 -59 -62 -117 0 -36 6 -52 31 -81 26 -30 30
-40 22 -58 -10 -22 -14 -22 -191 -22 -135 0 -184 -3 -194 -13 -9 -9 -14 -65
-18 -200 -5 -181 -6 -187 -26 -190 -12 -2 -35 9 -53 24 -91 76 -221 14 -221
-106 0 -128 141 -189 231 -99 10 10 25 19 32 19 33 0 37 -23 37 -201 0 -224
-15 -209 203 -209 154 0 158 1 182 25 32 31 31 40 -5 82 -25 28 -30 42 -30 84
0 44 4 55 33 84 84 84 237 35 237 -76 0 -42 -18 -87 -44 -108 -21 -18 -20 -54
2 -74 16 -14 44 -17 189 -17 152 0 172 2 186 18 14 16 17 44 17 184 0 159 -1
165 -23 186 -30 28 -37 28 -82 -8 -66 -52 -155 -38 -190 30 -19 37 -19 113 0
150 34 65 127 80 190 30 44 -35 65 -37 88 -12 15 16 17 45 17 195 0 130 -3
178 -12 184 -7 4 -96 10 -198 13 -185 5 -185 5 -188 28 -2 14 5 33 17 45 85
92 27 227 -99 227 -25 0 -60 -8 -78 -17z"/>
</g>
</svg>
